<svg xmlns="http://www.w3.org/2000/svg" xmlns:xlink="http://www.w3.org/1999/xlink" preserveAspectRatio="xMidYMid" width="60.187" height="55.625" viewBox="0 0 60.187 55.625">

  <path style="fill-rule:evenodd;clip-rule:evenodd;fill:#FFFFFF;" d="M60.085,42.371 C60.033,42.810 59.638,43.142 59.207,43.107 L59.022,43.102 C57.696,43.102 56.463,43.919 55.954,45.135 C55.411,46.427 55.750,47.932 56.794,48.877 C57.121,49.173 57.160,49.673 56.883,50.017 C56.170,50.905 55.354,51.712 54.457,52.416 C54.111,52.683 53.621,52.644 53.325,52.321 C52.432,51.341 50.845,50.972 49.610,51.476 C48.333,51.999 47.507,53.285 47.558,54.675 C47.572,55.111 47.250,55.486 46.815,55.534 C46.266,55.595 45.718,55.625 45.169,55.625 C44.591,55.625 44.014,55.592 43.441,55.525 C43.002,55.475 42.679,55.090 42.705,54.648 C42.784,53.243 41.970,51.935 40.675,51.393 C39.439,50.874 37.834,51.242 36.936,52.234 C36.638,52.562 36.138,52.601 35.794,52.324 C34.919,51.619 34.118,50.811 33.422,49.924 C33.151,49.581 33.192,49.089 33.513,48.794 C34.538,47.853 34.876,46.363 34.352,45.084 C33.825,43.804 32.572,42.996 31.265,43.029 C30.835,43.029 30.329,42.715 30.282,42.291 C30.155,41.156 30.156,40.007 30.288,38.881 C30.341,38.448 30.679,38.129 31.155,38.144 C32.620,38.144 33.901,37.350 34.418,36.117 C34.960,34.823 34.624,33.320 33.579,32.374 C33.254,32.078 33.213,31.579 33.490,31.235 C34.200,30.348 35.018,29.541 35.916,28.835 C36.260,28.567 36.754,28.607 37.048,28.930 C37.941,29.912 39.535,30.277 40.762,29.776 C42.040,29.252 42.864,27.967 42.815,26.576 C42.801,26.140 43.124,25.766 43.558,25.717 C44.682,25.593 45.812,25.597 46.933,25.726 C47.372,25.778 47.695,26.161 47.669,26.603 C47.589,28.007 48.404,29.316 49.695,29.859 C50.936,30.377 52.542,30.009 53.436,29.019 C53.732,28.691 54.234,28.653 54.576,28.927 C55.449,29.626 56.248,30.433 56.952,31.326 C57.222,31.669 57.183,32.163 56.860,32.458 C55.836,33.397 55.500,34.888 56.022,36.166 C56.533,37.415 57.753,38.222 59.127,38.222 C59.553,38.222 60.044,38.539 60.092,38.960 C60.219,40.097 60.218,41.244 60.085,42.371 ZM45.187,31.979 C40.411,31.979 36.540,35.850 36.540,40.626 C36.540,45.402 40.411,49.273 45.187,49.273 C46.900,49.273 48.496,48.772 49.840,47.913 L46.012,44.085 C45.366,44.359 44.666,44.504 43.942,44.504 C42.526,44.504 41.195,43.952 40.194,42.951 C38.855,41.613 38.331,39.645 38.826,37.815 C38.898,37.549 39.128,37.363 39.385,37.363 C39.495,37.363 39.660,37.397 39.821,37.558 C39.821,37.558 41.617,39.341 42.268,39.992 C42.369,40.093 42.480,40.114 42.556,40.114 C42.569,40.114 42.580,40.113 42.585,40.112 L42.617,40.104 L42.617,40.108 C43.315,40.046 44.153,39.923 44.474,39.820 C44.488,39.805 44.502,39.791 44.516,39.777 C44.530,39.763 44.542,39.752 44.556,39.739 C44.656,39.421 44.778,38.596 44.841,37.908 L44.847,37.867 C44.856,37.811 44.856,37.655 44.791,37.589 C44.165,36.964 42.296,35.080 42.296,35.080 C42.136,34.920 42.075,34.711 42.129,34.507 C42.182,34.307 42.345,34.143 42.545,34.089 C43.000,33.965 43.470,33.902 43.942,33.902 C45.358,33.902 46.689,34.453 47.690,35.455 C48.692,36.456 49.243,37.787 49.243,39.203 C49.243,39.926 49.099,40.627 48.825,41.273 L52.611,45.060 C53.387,43.763 53.834,42.247 53.834,40.626 C53.834,35.850 49.963,31.979 45.187,31.979 ZM21.251,28.120 C13.400,28.121 10.576,20.298 9.836,13.874 C8.924,5.959 12.688,0.003 21.251,0.003 C29.816,0.003 33.577,5.959 32.666,13.874 C31.927,20.299 29.102,28.120 21.251,28.120 ZM12.133,26.833 C14.519,29.436 17.629,30.798 21.250,30.798 C24.873,30.798 27.983,29.436 30.369,26.833 C30.690,27.002 31.024,27.160 31.369,27.314 C30.985,27.712 30.605,28.114 30.261,28.543 C29.920,28.968 29.970,29.584 30.371,29.949 C31.659,31.115 32.074,32.970 31.405,34.565 C30.767,36.086 29.188,37.065 27.380,37.065 C26.794,37.047 26.376,37.441 26.312,37.974 C26.149,39.363 26.147,40.780 26.304,42.180 C26.362,42.703 26.987,43.090 27.517,43.090 C29.128,43.049 30.674,44.046 31.324,45.625 C31.970,47.202 31.554,49.040 30.289,50.200 C29.893,50.564 29.843,51.171 30.177,51.593 C30.254,51.692 30.346,51.779 30.426,51.876 C27.395,52.404 24.319,52.767 21.251,52.789 C17.062,52.760 12.855,52.101 8.774,51.243 C6.661,50.799 4.562,50.258 2.529,49.528 C0.906,48.945 -0.053,48.675 0.014,46.744 C0.099,44.251 0.393,41.746 0.831,39.292 C1.360,36.319 2.034,31.960 4.643,30.023 C6.152,28.903 8.106,28.535 9.833,27.860 C10.673,27.531 11.426,27.205 12.133,26.833 Z" class="cls-1"/>
</svg>
