<svg xmlns="http://www.w3.org/2000/svg" xmlns:xlink="http://www.w3.org/1999/xlink" preserveAspectRatio="xMidYMid" width="35.813" height="40.344" viewBox="0 0 35.813 40.344">
  <defs>
    <style>
      .cls-1 {
        fill: #ffd204;
        fill-rule: evenodd;
      }
    </style>
  </defs>
  <path d="M35.632,27.632 L26.669,39.975 C26.497,40.213 26.223,40.352 25.932,40.352 C25.929,40.352 25.926,40.352 25.924,40.352 C25.630,40.349 25.356,40.204 25.186,39.962 L19.135,31.310 C18.885,30.954 18.917,30.470 19.210,30.150 C19.505,29.830 19.980,29.761 20.350,29.986 L25.934,33.371 L34.313,26.375 C34.668,26.079 35.185,26.094 35.521,26.415 C35.857,26.735 35.903,27.256 35.632,27.632 ZM17.703,28.152 C15.876,29.880 20.033,36.374 21.113,37.989 C19.270,38.269 17.410,38.462 15.554,38.475 C12.488,38.454 9.409,37.974 6.422,37.349 C4.876,37.025 3.339,36.630 1.851,36.099 C0.663,35.674 -0.038,35.476 0.010,34.069 C0.073,32.252 0.288,30.427 0.608,28.638 C0.996,26.471 1.489,23.294 3.399,21.882 C4.503,21.066 5.933,20.798 7.197,20.306 C7.812,20.066 8.363,19.828 8.881,19.557 C10.626,21.454 12.903,22.447 15.553,22.447 C18.204,22.447 20.481,21.454 22.227,19.557 C22.744,19.828 23.295,20.066 23.911,20.306 C25.175,20.798 26.605,21.066 27.709,21.882 C29.062,22.883 29.699,24.769 30.096,26.554 L25.753,30.338 C25.753,30.338 19.794,26.174 17.703,28.152 ZM15.554,20.495 C9.808,20.496 7.741,14.794 7.199,10.112 C6.532,4.343 9.286,0.002 15.554,0.002 C21.822,0.002 24.575,4.344 23.909,10.112 C23.367,14.795 21.300,20.495 15.554,20.495 Z" class="cls-1"/>
</svg>
