<svg xmlns="http://www.w3.org/2000/svg" xmlns:xlink="http://www.w3.org/1999/xlink" preserveAspectRatio="xMidYMid" width="67" height="68" viewBox="0 0 67 68">

  <path style="fill-rule:evenodd;clip-rule:evenodd;fill:#FFFFFF;" d="M63.501,68.000 L3.499,68.000 C1.567,68.000 -0.000,66.424 -0.000,64.482 L-0.000,48.214 L-0.000,28.428 L23.065,44.443 L5.794,58.855 C4.845,59.647 4.714,61.063 5.502,62.016 C6.292,62.971 7.701,63.103 8.646,62.310 L26.883,47.093 L33.500,51.688 L40.117,47.093 L58.353,62.310 C58.770,62.658 59.276,62.828 59.779,62.828 C60.420,62.828 61.057,62.551 61.498,62.016 C62.286,61.063 62.155,59.647 61.206,58.855 L43.935,44.443 L67.000,28.428 L67.000,64.482 C67.000,66.424 65.433,68.000 63.501,68.000 ZM19.402,9.692 L47.598,9.692 C48.523,9.692 49.273,10.447 49.273,11.376 C49.273,12.306 48.523,13.060 47.598,13.060 L19.402,13.060 C18.477,13.060 17.727,12.306 17.727,11.376 C17.727,10.447 18.477,9.692 19.402,9.692 ZM19.402,27.654 L47.598,27.654 C48.523,27.654 49.273,28.408 49.273,29.338 C49.273,30.268 48.523,31.022 47.598,31.022 L19.402,31.022 C18.477,31.022 17.727,30.268 17.727,29.338 C17.727,28.408 18.477,27.654 19.402,27.654 ZM19.402,18.673 L47.598,18.673 C48.523,18.673 49.273,19.428 49.273,20.357 C49.273,21.287 48.523,22.041 47.598,22.041 L19.402,22.041 C18.477,22.041 17.727,21.287 17.727,20.357 C17.727,19.428 18.477,18.673 19.402,18.673 ZM53.448,31.955 L53.448,4.407 L12.328,4.407 L12.328,31.955 L7.944,28.911 L3.502,25.828 L7.944,22.084 L7.944,2.203 C7.944,0.987 8.925,-0.000 10.136,-0.000 L55.640,-0.000 C56.850,-0.000 57.832,0.987 57.832,2.203 L57.832,20.200 L63.498,24.978 L57.832,28.911 L53.448,31.955 Z" class="cls-1"/>
</svg>
