<svg xmlns="http://www.w3.org/2000/svg" xmlns:xlink="http://www.w3.org/1999/xlink" preserveAspectRatio="xMidYMid" width="32.906" height="38.532" viewBox="0 0 32.906 38.532">
  <defs>
    <style>
      .cls-1 {
        fill: #ffd204;
        fill-rule: evenodd;
      }
    </style>
  </defs>
  <path d="M6.088,19.265 C6.088,20.084 5.406,20.748 4.565,20.748 L1.518,20.748 C0.677,20.748 -0.005,20.084 -0.005,19.265 L-0.005,19.265 C-0.005,18.446 0.677,17.782 1.518,17.782 L4.565,17.782 C5.406,17.782 6.088,18.446 6.088,19.265 L6.088,19.265 ZM6.088,9.776 C6.088,8.957 5.406,8.293 4.565,8.293 L1.518,8.293 C0.677,8.293 -0.005,8.957 -0.005,9.776 L-0.005,9.776 C-0.005,10.595 0.677,11.258 1.518,11.258 L4.565,11.258 C5.406,11.258 6.088,10.595 6.088,9.776 L6.088,9.776 ZM6.088,28.754 C6.088,27.935 5.406,27.271 4.565,27.271 L1.518,27.271 C0.677,27.271 -0.005,27.935 -0.005,28.754 L-0.005,28.754 C-0.005,29.573 0.677,30.236 1.518,30.236 L4.565,30.236 C5.406,30.236 6.088,29.573 6.088,28.754 L6.088,28.754 ZM32.894,4.735 L32.894,33.794 C32.894,36.415 30.711,38.539 28.020,38.539 L6.697,38.539 C4.005,38.539 1.823,36.415 1.823,33.794 L1.823,31.423 L4.565,31.423 C6.076,31.423 7.306,30.225 7.306,28.754 C7.306,27.282 6.076,26.085 4.565,26.085 L1.823,26.085 L1.823,21.933 L4.565,21.933 C6.076,21.933 7.306,20.736 7.306,19.265 C7.306,17.794 6.076,16.596 4.565,16.596 L1.823,16.596 L1.823,12.445 L4.565,12.445 C6.076,12.445 7.306,11.247 7.306,9.776 C7.306,8.305 6.076,7.107 4.565,7.107 L1.823,7.107 L1.823,4.735 C1.823,2.115 4.005,-0.010 6.697,-0.010 L28.020,-0.010 C30.711,-0.010 32.894,2.115 32.894,4.735 ZM13.573,14.054 C13.573,16.581 15.677,18.629 18.273,18.629 C20.867,18.629 22.972,16.581 22.972,14.054 C22.972,11.528 20.867,9.479 18.273,9.479 C15.677,9.479 13.573,11.528 13.573,14.054 ZM25.583,25.238 C25.583,22.430 23.245,20.154 20.361,20.154 L16.184,20.154 C13.300,20.154 10.961,22.430 10.961,25.238 L10.961,27.271 L25.583,27.271 L25.583,25.238 Z" class="cls-1"/>
</svg>
