<svg xmlns="http://www.w3.org/2000/svg" xmlns:xlink="http://www.w3.org/1999/xlink" preserveAspectRatio="xMidYMid" width="70" height="65.156" viewBox="0 0 70 65.156">

  <path style="fill-rule:evenodd;clip-rule:evenodd;fill:#FFFFFF;" d="M66.254,52.346 L41.511,52.346 L44.843,60.361 L46.372,60.361 C47.700,60.361 48.777,61.438 48.777,62.766 C48.777,64.093 47.700,65.170 46.372,65.170 L23.630,65.170 C22.303,65.170 21.225,64.093 21.225,62.766 C21.225,61.438 22.303,60.361 23.630,60.361 L25.159,60.361 L28.491,52.346 L3.748,52.346 C1.687,52.346 0.015,50.674 0.015,48.614 L0.015,9.139 C0.015,7.079 1.687,5.407 3.748,5.407 L9.078,5.407 C8.254,6.905 8.577,8.607 9.677,9.705 C7.661,9.705 6.058,11.337 6.058,13.318 C6.058,17.333 5.755,18.622 6.677,19.977 L6.677,42.893 C6.677,43.795 7.409,44.525 8.310,44.525 L61.692,44.525 C62.594,44.525 63.325,43.794 63.325,42.893 L63.325,21.757 C64.116,20.029 64.179,18.000 63.325,16.229 C63.325,12.261 63.368,12.853 56.950,12.853 L58.196,12.334 C60.717,11.283 61.070,7.904 57.929,5.407 L66.254,5.407 C68.316,5.407 69.988,7.079 69.987,9.139 L69.987,48.614 C69.987,50.674 68.316,52.346 66.254,52.346 ZM54.180,46.433 C53.214,46.433 52.431,47.217 52.431,48.182 C52.431,49.148 53.214,49.931 54.180,49.931 C55.146,49.931 55.929,49.148 55.929,48.182 C55.929,47.217 55.146,46.433 54.180,46.433 ZM59.865,46.433 C58.899,46.433 58.116,47.217 58.116,48.182 C58.116,49.148 58.899,49.931 59.865,49.931 C60.831,49.931 61.615,49.148 61.615,48.182 C61.615,47.217 60.831,46.433 59.865,46.433 ZM57.298,10.182 C50.219,13.131 50.590,12.039 53.041,17.914 C53.397,18.767 54.374,19.165 55.219,18.812 L60.057,16.798 C61.886,16.042 62.569,20.773 59.587,22.664 C54.159,26.104 53.863,25.789 46.666,23.268 L19.045,34.774 C13.613,37.033 10.329,28.862 15.654,26.643 L43.272,15.136 C45.162,11.164 46.126,7.911 50.399,6.935 L52.800,6.388 C56.278,5.585 59.073,9.444 57.298,10.182 ZM43.085,10.105 L41.882,12.627 C41.566,10.984 40.122,9.705 38.329,9.705 C39.591,8.234 39.673,6.748 38.933,5.407 L47.748,5.407 C45.723,6.384 44.078,8.021 43.085,10.105 ZM24.004,9.721 C28.391,9.721 31.412,14.431 29.159,18.490 L22.398,21.307 C19.918,20.602 18.087,18.341 18.087,15.638 C18.087,12.375 20.740,9.721 24.004,9.721 ZM39.620,14.131 L32.093,17.268 C33.125,12.070 29.131,7.390 24.004,7.390 C19.456,7.390 15.754,11.090 15.754,15.638 C15.754,18.515 17.239,21.046 19.481,22.523 C15.228,24.294 13.871,24.572 12.424,26.136 C10.112,23.826 10.468,24.078 13.185,21.362 C12.827,20.689 12.529,19.978 12.299,19.237 C7.730,19.237 8.390,19.798 8.390,13.318 C8.390,11.640 10.579,12.037 12.301,12.037 C12.529,11.296 12.827,10.587 13.185,9.913 C9.946,6.677 10.023,7.537 14.604,2.959 C15.793,1.775 17.061,3.605 18.278,4.822 C18.952,4.465 19.663,4.165 20.405,3.939 C20.405,-0.633 19.843,0.029 26.325,0.029 C27.999,0.029 27.603,2.221 27.603,3.939 C28.348,4.165 29.056,4.465 29.730,4.822 C32.965,1.590 32.076,1.628 36.687,6.237 C37.873,7.424 36.040,8.694 34.823,9.911 C35.181,10.585 35.482,11.296 35.709,12.037 C38.967,12.037 39.620,11.698 39.620,14.131 Z" class="cls-1"/>
</svg>
