<svg xmlns="http://www.w3.org/2000/svg" xmlns:xlink="http://www.w3.org/1999/xlink" preserveAspectRatio="xMidYMid" width="39.688" height="38.563" viewBox="0 0 39.688 38.563">
  <defs>
    <style>
      .cls-1 {
        fill: #ffd204;
        fill-rule: evenodd;
      }
    </style>
  </defs>
  <path d="M38.816,17.436 L21.915,0.831 C20.762,-0.301 18.894,-0.301 17.741,0.831 L0.839,17.436 C-0.004,18.265 -0.257,19.512 0.200,20.596 C0.657,21.679 1.733,22.385 2.926,22.385 L5.216,22.385 L5.216,34.800 C5.216,36.871 6.925,38.550 9.033,38.550 L30.623,38.550 C32.731,38.550 34.440,36.871 34.440,34.800 L34.440,22.385 L36.730,22.385 C37.923,22.385 38.999,21.679 39.456,20.596 C39.913,19.512 39.660,18.265 38.816,17.436 ZM24.287,33.112 L15.369,33.112 L15.369,28.173 C15.369,25.753 17.365,23.792 19.828,23.792 C22.291,23.792 24.287,25.753 24.287,28.173 L24.287,33.112 Z" class="cls-1"/>
</svg>
