<svg xmlns="http://www.w3.org/2000/svg" xmlns:xlink="http://www.w3.org/1999/xlink" preserveAspectRatio="xMidYMid" width="54" height="54" viewBox="0 0 54 54">

  <path style="fill-rule:evenodd;clip-rule:evenodd;fill:#FFFFFF;" d="M52.594,2.928 C51.688,2.022 50.483,1.523 49.201,1.523 C47.920,1.523 46.715,2.022 45.808,2.928 L24.376,24.360 L31.162,31.146 L52.595,9.714 C54.466,7.843 54.466,4.799 52.594,2.928 ZM50.657,6.760 L32.237,25.180 C31.975,25.442 31.632,25.573 31.289,25.573 C30.947,25.573 30.604,25.442 30.342,25.180 C29.819,24.657 29.819,23.809 30.342,23.286 L48.763,4.866 C49.285,4.343 50.134,4.343 50.657,4.866 C51.180,5.389 51.180,6.237 50.657,6.760 ZM51.927,42.738 L37.643,28.454 L33.057,33.041 L33.763,33.747 C34.286,34.270 34.286,35.119 33.763,35.642 C33.501,35.903 33.158,36.034 32.816,36.034 C32.473,36.034 32.130,35.903 31.869,35.642 L30.215,33.989 C30.215,33.988 30.215,33.988 30.215,33.988 L26.822,30.595 L26.822,30.595 L24.927,28.700 L24.927,28.700 L21.534,25.308 L21.534,25.308 L19.880,23.654 C19.357,23.131 19.357,22.283 19.880,21.760 C20.403,21.237 21.252,21.237 21.774,21.760 L22.481,22.466 L27.068,17.879 L22.960,13.771 C23.675,10.022 22.491,6.107 19.777,3.393 C17.589,1.205 14.680,-0.000 11.585,-0.000 C10.482,-0.000 9.386,0.156 8.330,0.465 C7.875,0.597 7.524,0.960 7.407,1.418 C7.289,1.877 7.423,2.363 7.758,2.698 L12.176,7.116 C13.111,8.052 13.111,9.575 12.176,10.511 L10.509,12.177 C10.056,12.631 9.453,12.880 8.812,12.880 C8.170,12.880 7.568,12.631 7.114,12.177 L2.696,7.759 C2.361,7.424 1.875,7.291 1.417,7.409 C0.958,7.526 0.596,7.877 0.463,8.331 C-0.827,12.750 0.626,17.521 4.163,20.486 C6.251,22.235 8.885,23.199 11.580,23.199 C12.322,23.199 13.063,23.126 13.792,22.983 L22.218,31.410 L8.462,45.165 L7.721,44.424 C7.439,44.142 7.048,44.000 6.647,44.038 C6.249,44.076 5.889,44.289 5.665,44.620 L1.752,50.396 C1.392,50.928 1.460,51.640 1.914,52.094 L3.427,53.608 C3.686,53.867 4.029,54.000 4.375,54.000 C4.635,54.000 4.897,53.924 5.126,53.769 L10.902,49.857 C11.232,49.633 11.446,49.273 11.484,48.875 C11.522,48.477 11.380,48.083 11.097,47.801 L10.357,47.060 L24.113,33.304 L42.737,51.928 C43.965,53.156 45.597,53.832 47.332,53.832 C49.068,53.832 50.700,53.156 51.927,51.928 C54.461,49.394 54.461,45.272 51.927,42.738 ZM49.243,49.244 C48.602,49.885 47.750,50.238 46.844,50.238 C45.938,50.238 45.086,49.885 44.445,49.244 C43.122,47.921 43.122,45.769 44.445,44.446 C45.086,43.805 45.938,43.452 46.844,43.452 C47.750,43.452 48.603,43.805 49.243,44.446 C50.566,45.769 50.566,47.921 49.243,49.244 Z" class="cls-1"/>
</svg>
