<svg xmlns="http://www.w3.org/2000/svg" xmlns:xlink="http://www.w3.org/1999/xlink" preserveAspectRatio="xMidYMid" width="37.438" height="36.281" viewBox="0 0 37.438 36.281">

  <path style="fill-rule:evenodd;clip-rule:evenodd;fill:#FFFFFF;" d="M36.908,6.435 L34.229,9.135 L28.373,3.225 L31.052,0.525 C31.397,0.176 31.851,0.001 32.305,0.001 C32.759,0.001 33.214,0.176 33.559,0.526 L36.908,3.906 C37.600,4.603 37.600,5.736 36.908,6.435 ZM16.842,26.679 L10.985,20.768 L27.119,4.490 L32.976,10.401 L16.842,26.679 ZM15.578,27.943 L8.470,29.203 L9.721,22.033 L15.578,27.943 ZM3.828,10.075 L3.828,32.398 L25.912,32.398 L25.912,19.718 L29.745,15.850 L29.745,33.767 C29.745,35.146 28.630,36.273 27.266,36.273 L2.474,36.273 C1.110,36.273 -0.005,35.146 -0.005,33.767 L-0.005,8.707 C-0.005,7.328 1.110,6.201 2.474,6.201 L23.254,6.201 L19.413,10.075 L3.828,10.075 Z" class="cls-1"/>
</svg>
