<svg xmlns="http://www.w3.org/2000/svg" xmlns:xlink="http://www.w3.org/1999/xlink" preserveAspectRatio="xMidYMid" width="38.594" height="40.813" viewBox="0 0 38.594 40.813">
  
  <path style="fill-rule:evenodd;clip-rule:evenodd;fill:#FFFFFF;" d="M38.372,25.431 L27.580,40.343 C27.373,40.631 27.043,40.799 26.693,40.799 C26.690,40.799 26.686,40.799 26.684,40.799 C26.330,40.796 25.999,40.620 25.795,40.327 L18.509,29.875 C18.208,29.444 18.247,28.860 18.600,28.474 C18.955,28.086 19.527,28.004 19.973,28.276 L26.696,32.365 L36.784,23.912 C37.211,23.555 37.834,23.573 38.239,23.961 C38.643,24.347 38.698,24.977 38.372,25.431 ZM22.558,25.630 L9.360,25.630 C8.146,25.630 7.162,24.631 7.162,23.400 C7.162,22.168 8.146,21.170 9.360,21.170 L22.559,21.170 C23.773,21.170 24.757,22.168 24.756,23.400 C24.756,24.631 23.772,25.630 22.558,25.630 ZM22.558,12.251 L9.360,12.251 C8.146,12.251 7.162,11.252 7.162,10.021 C7.162,8.789 8.146,7.791 9.360,7.791 L22.559,7.791 C23.773,7.791 24.756,8.789 24.756,10.021 C24.756,11.252 23.772,12.251 22.558,12.251 ZM22.558,18.940 L9.360,18.940 C8.146,18.940 7.162,17.941 7.162,16.710 C7.162,15.479 8.146,14.480 9.360,14.480 L22.559,14.480 C23.773,14.480 24.757,15.479 24.756,16.710 C24.756,17.942 23.772,18.940 22.558,18.940 ZM27.507,4.446 L4.412,4.446 L4.412,33.434 L18.297,33.434 L21.406,37.894 L2.213,37.894 C0.998,37.894 0.014,36.896 0.014,35.664 L0.014,2.216 C0.014,0.985 0.998,-0.014 2.213,-0.014 L29.707,-0.014 C30.922,-0.014 31.906,0.985 31.906,2.216 L31.906,25.107 L27.507,28.792 L27.507,4.446 Z" class="cls-1"/>
</svg>
