<svg xmlns="http://www.w3.org/2000/svg" xmlns:xlink="http://www.w3.org/1999/xlink" preserveAspectRatio="xMidYMid" width="64.625" height="68" viewBox="0 0 64.625 68">
  <defs>
    <style>
      .cls-1 {
        fill: #ffd204;
        fill-rule: evenodd;
      }
    </style>
  </defs>
  <path d="M64.262,42.395 L46.185,67.248 C45.838,67.727 45.286,68.008 44.699,68.008 C44.693,68.008 44.687,68.008 44.683,68.008 C44.090,68.003 43.537,67.710 43.195,67.222 L30.989,49.802 C30.486,49.084 30.550,48.110 31.141,47.466 C31.737,46.820 32.694,46.683 33.441,47.136 L44.703,53.951 L61.602,39.863 C62.318,39.268 63.361,39.299 64.040,39.944 C64.717,40.588 64.809,41.639 64.262,42.395 ZM37.772,42.726 L15.664,42.726 C13.630,42.726 11.981,41.062 11.981,39.009 C11.981,36.957 13.630,35.293 15.664,35.293 L37.773,35.293 C39.808,35.293 41.456,36.957 41.455,39.009 C41.455,41.062 39.806,42.726 37.772,42.726 ZM37.772,20.428 L15.664,20.428 C13.630,20.428 11.981,18.764 11.981,16.711 C11.981,14.659 13.630,12.995 15.664,12.995 L37.773,12.995 C39.808,12.995 41.455,14.659 41.455,16.711 C41.455,18.764 39.806,20.428 37.772,20.428 ZM37.772,31.576 L15.664,31.576 C13.630,31.576 11.981,29.912 11.981,27.860 C11.981,25.807 13.630,24.143 15.664,24.143 L37.773,24.143 C39.808,24.143 41.456,25.807 41.455,27.860 C41.455,29.913 39.806,31.576 37.772,31.576 ZM46.062,7.420 L7.375,7.420 L7.375,55.734 L30.633,55.734 L35.842,63.167 L3.691,63.167 C1.656,63.167 0.008,61.503 0.008,59.451 L0.008,3.703 C0.008,1.651 1.656,-0.013 3.691,-0.013 L49.748,-0.013 C51.782,-0.013 53.431,1.651 53.431,3.703 L53.431,41.855 L46.062,47.997 L46.062,7.420 Z" class="cls-1"/>
</svg>
