<svg xmlns="http://www.w3.org/2000/svg" xmlns:xlink="http://www.w3.org/1999/xlink" preserveAspectRatio="xMidYMid" width="35" height="54" viewBox="0 0 35 54">
  <defs>
    <style>
      .cls-1 {
        fill: #ffd204;
        fill-rule: evenodd;
      }
    </style>
  </defs>
  <path d="M33.935,-0.002 L1.067,-0.002 C0.476,-0.002 -0.002,0.478 -0.002,1.071 L-0.002,10.829 C-0.002,11.422 0.476,11.902 1.067,11.902 L33.935,11.902 C34.526,11.902 35.004,11.422 35.004,10.829 L35.004,1.072 C35.004,0.478 34.526,-0.002 33.935,-0.002 ZM17.501,8.493 L3.472,8.493 L3.472,2.856 L17.501,2.856 L17.501,8.493 ZM33.935,14.393 L1.067,14.393 C0.476,14.393 -0.002,14.873 -0.002,15.466 L-0.002,25.225 C-0.002,25.818 0.476,26.298 1.067,26.298 L33.935,26.298 C34.526,26.298 35.004,25.818 35.004,25.225 L35.004,15.466 C35.004,14.873 34.526,14.393 33.935,14.393 ZM17.501,22.743 L3.472,22.743 L3.472,17.106 L17.501,17.106 L17.501,22.743 ZM33.935,28.649 L1.067,28.649 C0.476,28.649 -0.002,29.130 -0.002,29.723 L-0.002,39.481 C-0.002,40.074 0.476,40.554 1.067,40.554 L33.935,40.554 C34.526,40.554 35.004,40.074 35.004,39.481 L35.004,29.723 C35.004,29.130 34.526,28.649 33.935,28.649 ZM17.501,37.421 L3.472,37.421 L3.472,31.784 L17.501,31.784 L17.501,37.421 ZM24.914,50.634 L33.299,50.634 L33.299,52.172 L24.928,52.172 L24.928,52.244 C24.928,53.215 24.145,54.002 23.179,54.002 L11.822,54.002 C10.856,54.002 10.072,53.215 10.072,52.244 L10.072,52.172 L1.702,52.172 L1.702,50.634 L10.087,50.634 C10.162,49.733 10.906,49.023 11.822,49.023 L15.307,49.023 L15.307,45.509 C15.307,44.539 16.090,43.752 17.056,43.752 L17.931,43.752 C18.897,43.752 19.680,44.539 19.680,45.509 L19.680,49.023 L23.179,49.023 C24.095,49.023 24.839,49.734 24.914,50.634 Z" class="cls-1"/>
</svg>
