<svg xmlns="http://www.w3.org/2000/svg" xmlns:xlink="http://www.w3.org/1999/xlink" preserveAspectRatio="xMidYMid" width="37.406" height="37.406" viewBox="0 0 37.406 37.406">
  <defs>
    <style>
      .cls-1 {
        fill: #ffd204;
        fill-rule: evenodd;
      }
    </style>
  </defs>
  <path d="M18.703,-0.005 C8.385,-0.005 -0.010,8.385 -0.010,18.696 C-0.010,29.008 8.385,37.397 18.703,37.397 C29.021,37.397 37.416,29.008 37.416,18.696 C37.416,8.385 29.021,-0.005 18.703,-0.005 ZM29.493,29.002 C29.493,28.570 29.493,28.264 29.493,28.264 C29.493,25.714 26.544,24.783 24.966,24.109 C24.395,23.865 23.318,23.348 22.212,22.808 C21.838,22.626 21.502,22.140 21.460,21.726 L21.338,20.517 C22.183,19.730 22.945,18.634 23.074,17.412 L23.265,17.412 C23.565,17.412 23.848,17.188 23.892,16.913 L24.191,15.065 C24.231,14.671 23.858,14.431 23.557,14.431 C23.564,14.392 23.571,14.352 23.576,14.319 C23.615,14.097 23.638,13.882 23.652,13.673 C23.672,13.505 23.687,13.331 23.694,13.151 C23.726,12.279 23.578,11.516 23.334,11.089 C23.085,10.492 22.707,9.912 22.182,9.414 C20.720,8.032 19.025,7.493 17.579,8.605 C16.595,8.435 15.425,8.884 14.580,9.873 C14.119,10.413 13.831,11.031 13.709,11.639 C13.599,12.018 13.525,12.476 13.507,12.973 C13.488,13.525 13.542,14.030 13.644,14.439 C13.356,14.457 13.068,14.694 13.068,15.067 L13.366,16.915 C13.411,17.190 13.694,17.414 13.994,17.414 L14.165,17.414 C14.436,18.735 15.139,19.820 15.916,20.576 L15.798,21.744 C15.756,22.158 15.420,22.643 15.046,22.828 C13.977,23.350 12.924,23.851 12.294,24.110 C10.809,24.721 7.767,25.716 7.767,28.265 L7.767,28.842 C5.288,26.175 3.760,22.616 3.760,18.698 C3.760,10.464 10.464,3.764 18.704,3.764 C26.945,3.764 33.648,10.464 33.648,18.698 C33.647,22.692 32.060,26.318 29.493,29.002 Z" class="cls-1"/>
</svg>
