<svg xmlns="http://www.w3.org/2000/svg" xmlns:xlink="http://www.w3.org/1999/xlink" preserveAspectRatio="xMidYMid" width="37.469" height="37.41" viewBox="0 0 37.469 37.41">
  
  <path style="fill-rule:evenodd;clip-rule:evenodd;fill:#FFFFFF;" d="M37.362,16.627 C37.303,16.101 36.688,15.706 36.157,15.706 C34.439,15.706 32.915,14.699 32.276,13.143 C31.623,11.548 32.044,9.689 33.324,8.517 C33.727,8.149 33.776,7.534 33.438,7.106 C32.559,5.992 31.559,4.986 30.468,4.114 C30.041,3.771 29.414,3.819 29.044,4.228 C27.926,5.463 25.920,5.922 24.369,5.276 C22.755,4.599 21.737,2.967 21.837,1.215 C21.869,0.665 21.466,0.186 20.917,0.123 C19.517,-0.039 18.104,-0.044 16.700,0.111 C16.156,0.171 15.753,0.638 15.772,1.182 C15.833,2.916 14.803,4.520 13.205,5.173 C11.673,5.797 9.680,5.342 8.565,4.119 C8.196,3.715 7.580,3.666 7.150,4.000 C6.027,4.879 5.005,5.887 4.118,6.992 C3.772,7.421 3.823,8.044 4.230,8.413 C5.534,9.592 5.955,11.468 5.278,13.081 C4.631,14.618 3.031,15.609 1.199,15.609 C0.605,15.590 0.181,15.988 0.116,16.528 C-0.049,17.933 -0.050,19.365 0.108,20.782 C0.167,21.310 0.800,21.701 1.337,21.701 C2.970,21.660 4.537,22.668 5.194,24.265 C5.850,25.859 5.428,27.717 4.146,28.890 C3.745,29.258 3.694,29.872 4.032,30.300 C4.903,31.407 5.903,32.414 6.998,33.294 C7.427,33.639 8.052,33.590 8.424,33.181 C9.546,31.943 11.553,31.485 13.097,32.132 C14.715,32.807 15.733,34.439 15.633,36.192 C15.601,36.743 16.006,37.222 16.553,37.285 C17.269,37.368 17.990,37.410 18.713,37.410 C19.398,37.410 20.084,37.372 20.770,37.296 C21.314,37.236 21.717,36.769 21.698,36.225 C21.635,34.491 22.667,32.888 24.263,32.236 C25.806,31.607 27.790,32.067 28.905,33.290 C29.276,33.692 29.888,33.741 30.320,33.408 C31.441,32.530 32.461,31.524 33.352,30.416 C33.698,29.987 33.649,29.364 33.240,28.994 C31.936,27.815 31.512,25.939 32.190,24.328 C32.827,22.811 34.368,21.792 36.025,21.792 L36.257,21.798 C36.794,21.841 37.289,21.428 37.354,20.881 C37.519,19.474 37.521,18.044 37.362,16.627 ZM18.765,24.983 C15.317,24.983 12.512,22.184 12.512,18.743 C12.512,15.303 15.317,12.504 18.765,12.504 C22.213,12.504 25.017,15.303 25.017,18.743 C25.017,22.184 22.213,24.983 18.765,24.983 Z" class="cls-1"/>
</svg>
