<svg xmlns="http://www.w3.org/2000/svg" xmlns:xlink="http://www.w3.org/1999/xlink" preserveAspectRatio="xMidYMid" width="40" height="40" viewBox="0 0 40 40">
  
  <path style="fill-rule:evenodd;clip-rule:evenodd;fill:#FFFFFF;" d="M5.000,6.250 L5.000,1.250 C5.000,0.559 5.559,-0.000 6.250,-0.000 C6.941,-0.000 7.500,0.559 7.500,1.250 L7.500,6.250 C7.500,6.941 6.941,7.500 6.250,7.500 C5.559,7.500 5.000,6.941 5.000,6.250 ZM26.250,7.500 C26.941,7.500 27.500,6.941 27.500,6.250 L27.500,1.250 C27.500,0.559 26.941,-0.000 26.250,-0.000 C25.559,-0.000 25.000,0.559 25.000,1.250 L25.000,6.250 C25.000,6.941 25.559,7.500 26.250,7.500 ZM40.000,30.000 C40.000,35.522 35.522,40.000 30.000,40.000 C24.478,40.000 20.000,35.522 20.000,30.000 C20.000,24.477 24.478,20.000 30.000,20.000 C35.522,20.000 40.000,24.477 40.000,30.000 ZM37.500,30.000 C37.500,25.864 34.136,22.500 30.000,22.500 C25.864,22.500 22.500,25.864 22.500,30.000 C22.500,34.136 25.864,37.500 30.000,37.500 C34.136,37.500 37.500,34.136 37.500,30.000 ZM10.000,15.000 L5.000,15.000 L5.000,20.000 L10.000,20.000 L10.000,15.000 ZM5.000,27.500 L10.000,27.500 L10.000,22.500 L5.000,22.500 L5.000,27.500 ZM12.500,20.000 L17.500,20.000 L17.500,15.000 L12.500,15.000 L12.500,20.000 ZM12.500,27.500 L17.500,27.500 L17.500,22.500 L12.500,22.500 L12.500,27.500 ZM2.500,29.751 L2.500,12.500 L30.000,12.500 L30.000,17.500 L32.500,17.500 L32.500,7.749 C32.500,6.230 31.289,5.000 29.792,5.000 L28.750,5.000 L28.750,6.250 C28.750,7.627 27.629,8.750 26.250,8.750 C24.871,8.750 23.750,7.627 23.750,6.250 L23.750,5.000 L8.750,5.000 L8.750,6.250 C8.750,7.627 7.629,8.750 6.250,8.750 C4.871,8.750 3.750,7.627 3.750,6.250 L3.750,5.000 L2.709,5.000 C1.212,5.000 -0.000,6.230 -0.000,7.749 L-0.000,29.751 C-0.000,31.265 1.212,32.500 2.709,32.500 L17.500,32.500 L17.500,30.000 L2.709,30.000 C2.595,30.000 2.500,29.883 2.500,29.751 ZM25.000,20.000 L25.000,15.000 L20.000,15.000 L20.000,20.000 L25.000,20.000 ZM33.750,30.000 L30.000,30.000 L30.000,26.250 C30.000,25.559 29.441,25.000 28.750,25.000 C28.059,25.000 27.500,25.559 27.500,26.250 L27.500,31.250 C27.500,31.941 28.059,32.500 28.750,32.500 L33.750,32.500 C34.441,32.500 35.000,31.941 35.000,31.250 C35.000,30.559 34.441,30.000 33.750,30.000 Z" class="cls-1"/>
</svg>
