<?xml version="1.0" encoding="iso-8859-1"?>
<!-- Generator: Adobe Illustrator 16.0.0, SVG Export Plug-In . SVG Version: 6.00 Build 0)  -->
<!DOCTYPE svg PUBLIC "-//W3C//DTD SVG 1.1//EN" "http://www.w3.org/Graphics/SVG/1.1/DTD/svg11.dtd">
<svg version="1.1" id="Layer_1" xmlns="http://www.w3.org/2000/svg" xmlns:xlink="http://www.w3.org/1999/xlink" x="0px" y="0px"
	 width="54.015px" height="43.018px" viewBox="0 0 54.015 43.018" style="enable-background:new 0 0 54.015 43.018;"
	 xml:space="preserve">
<path style="fill-rule:evenodd;clip-rule:evenodd;fill:#FFFFFF;" d="M0,38.138c4.904,3.081,10.729,4.879,16.988,4.879
	c20.383,0,31.53-16.548,31.53-30.899c0-0.471-0.011-0.939-0.032-1.405c2.166-1.531,4.044-3.444,5.53-5.622
	c-1.987,0.864-4.123,1.448-6.365,1.71c2.288-1.344,4.045-3.472,4.873-6.008c-2.141,1.245-4.513,2.148-7.037,2.635
	C43.464,1.319,40.584,0,37.397,0c-6.12,0-11.082,4.862-11.082,10.859c0,0.852,0.098,1.68,0.287,2.475
	C17.392,12.881,9.226,8.558,3.761,1.988c-0.954,1.604-1.5,3.469-1.5,5.459c0,3.768,1.956,7.092,4.93,9.039
	c-1.816-0.056-3.525-0.545-5.019-1.358C2.17,15.174,2.17,15.219,2.17,15.265c0,5.262,3.82,9.651,8.889,10.649
	c-0.93,0.248-1.909,0.381-2.919,0.381c-0.714,0-1.408-0.068-2.085-0.195c1.41,4.314,5.502,7.454,10.352,7.542
	c-3.792,2.913-8.571,4.649-13.763,4.649C1.749,38.29,0.867,38.238,0,38.138z"/>
</svg>
